<!DOCTYPE svg PUBLIC "-//W3C//DTD SVG 1.1//EN" "http://www.w3.org/Graphics/SVG/1.1/DTD/svg11.dtd">
<!-- Uploaded to: SVG Repo, www.svgrepo.com, Transformed by: SVG Repo Mixer Tools -->
<svg fill="#000000" width="64px" height="64px" viewBox="0 0 32 32" style="fill-rule:evenodd;clip-rule:evenodd;stroke-linejoin:round;stroke-miterlimit:2;" version="1.1" xml:space="preserve" xmlns="http://www.w3.org/2000/svg" xmlns:serif="http://www.serif.com/" xmlns:xlink="http://www.w3.org/1999/xlink">
<g id="SVGRepo_bgCarrier" stroke-width="0"/>
<g id="SVGRepo_tracerCarrier" stroke-linecap="round" stroke-linejoin="round"/>
<g id="SVGRepo_iconCarrier"> <g transform="matrix(1,0,0,1,-432,0)"> <g transform="matrix(1.125,0,0,1,375.898,0)"> <path d="M71.196,10.9C71.148,9.836 70.367,9 69.42,9C66.684,9 61.316,9 58.58,9C57.633,9 56.852,9.836 56.804,10.9C56.638,14.653 56.267,22.991 56.093,26.9C56.069,27.447 56.245,27.982 56.581,28.378C56.916,28.775 57.382,29 57.869,29C60.948,29 67.052,29 70.131,29C70.618,29 71.084,28.775 71.419,28.378C71.755,27.982 71.931,27.447 71.907,26.9C71.733,22.991 71.362,14.653 71.196,10.9Z" style="fill:#90e0ef;"/> </g> <path d="M442.898,8L441.8,8C440.201,8 438.884,9.254 438.804,10.85C438.616,14.603 438.199,22.941 438.004,26.85C437.963,27.671 438.26,28.472 438.826,29.068C439.393,29.663 440.178,30 441,30L454.795,30C455.617,30 456.402,29.663 456.969,29.068C457.535,28.472 457.832,27.671 457.791,26.85L456.991,10.85C456.911,9.254 455.594,8 453.995,8L452.898,8L452.898,6C452.898,3.24 450.657,1 447.898,1C445.138,1 442.898,3.24 442.898,6L442.898,8ZM455.746,26L455.794,26.95C455.807,27.224 455.708,27.491 455.52,27.689C455.331,27.888 455.069,28 454.795,28C454.795,28 441,28 441,28C440.726,28 440.464,27.888 440.275,27.689C440.087,27.491 439.988,27.224 440.001,26.95L440.049,26L455.746,26ZM452.898,10L452.898,13C452.898,13.552 452.449,14 451.898,14C451.346,14 450.898,13.552 450.898,13L450.898,10L444.898,10L444.898,13C444.898,13.552 444.449,14 443.898,14C443.346,14 442.898,13.552 442.898,13L442.898,10L441.8,10C441.267,10 440.828,10.418 440.801,10.95L440.149,24L455.646,24L454.994,10.95C454.967,10.418 454.528,10 453.995,10L452.898,10ZM450.898,8L450.898,6C450.898,4.344 449.553,3 447.898,3C446.242,3 444.898,4.344 444.898,6L444.898,8L450.898,8Z" style="fill:#1990a7;"/> </g> </g>
</svg>